<svg viewBox="0 0 100 100" xmlns="http://www.w3.org/2000/svg">
  <defs>
    <linearGradient id="g" x1="0%" y1="0%" x2="100%" y2="100%">
      <stop offset="0%" stop-color="#f1f1f1" />
      <stop offset="50%" stop-color="#d9d9d9" />
      <stop offset="100%" stop-color="#c7c7c7" />
    </linearGradient>
  </defs>
  <path d="M20,0 L50,0 L50,25 L25,25 L25,50 L0,50 L0,20 Q0,0 20,0 Z" fill="url(#g)" />
  <path d="M50,0 L80,0 Q100,0 100,20 L100,50 L75,50 L75,25 L50,25 Z" fill="url(#g)" />
  <path d="M0,50 L25,50 L25,75 L50,75 L50,100 L20,100 Q0,100 0,80 L0,50 Z" fill="url(#g)" />
  <path d="M75,50 L100,50 L100,80 Q100,100 80,100 L50,100 L50,75 L75,75 L75,50 Z" fill="url(#g)" />
</svg>
